<svg width="40" height="40" viewBox="0 0 40 40" fill="none" xmlns="http://www.w3.org/2000/svg">
<g clip-path="url(#clip0_71_313)">
<rect y="0.000305176" width="40" height="40" rx="20" fill="#E2E4E9"/>
<path d="M29.1557 17.0206C27.8182 16.5486 26.9167 17.5616 26.9167 17.5616C26.6975 15.1759 25.9847 11.6495 25.134 9.44096C25.134 9.44096 25.1657 8.73256 25.6068 8.71733C25.7254 8.71292 25.8733 8.7586 26.0584 8.88161C26.5384 9.20055 27.0553 10.1133 27.5369 11.2989C28.2129 12.9641 28.8191 15.1675 29.1553 17.021L29.1557 17.0206Z" fill="#6D1249" stroke="black" stroke-width="0.356161" stroke-linecap="round" stroke-linejoin="round"/>
<path d="M29.2342 20.5688C29.0892 20.7572 28.9189 20.7948 28.7346 20.7259C28.1504 20.5083 27.4311 19.2193 26.9679 18.2673C26.9563 18.0466 26.9391 17.8101 26.9163 17.5613C26.9163 17.5613 27.8178 16.548 29.1553 17.0204C29.4678 18.7429 29.5475 20.1629 29.2346 20.5688H29.2342Z" fill="#F5D256" stroke="black" stroke-width="0.356161" stroke-linecap="round" stroke-linejoin="round"/>
<path d="M27.5372 11.2989C27.4735 11.3061 27.405 11.2969 27.3453 11.2761C27.0224 11.1651 26.8276 10.8401 26.6958 10.5248C26.5644 10.2099 26.4606 9.86769 26.2182 9.62728C26.1064 9.51629 25.9702 9.43295 25.85 9.33117C25.6512 9.16289 25.5639 8.96896 25.6072 8.71733C25.7258 8.71292 25.8736 8.7586 26.0587 8.88161C26.5387 9.20055 27.0556 10.1133 27.5372 11.2989Z" fill="#961E6C"/>
<path d="M29.1557 17.0202C27.8182 16.5482 26.9167 17.5612 26.9167 17.5612C26.6975 15.1755 25.9847 11.6491 25.134 9.44054C25.134 9.44054 25.1845 8.30061 26.0584 8.88079C27.2128 9.6473 28.5795 13.846 29.1553 17.0198L29.1557 17.0202Z" stroke="black" stroke-width="0.356161" stroke-linecap="round" stroke-linejoin="round"/>
<path d="M26.5899 12.1671C26.9865 12.8847 27.503 13.5506 27.7338 14.3375C27.8708 14.8039 27.8836 15.3573 27.5659 15.7251C27.5246 15.7732 27.4641 15.8209 27.4036 15.8012C27.3179 15.7736 27.3239 15.6526 27.3347 15.5628C27.3704 15.2747 27.2722 14.9846 27.13 14.7314C26.9877 14.4782 26.8022 14.253 26.6411 14.0114C26.1006 13.2004 25.853 12.2352 25.6146 11.2904C25.5236 10.9306 25.4327 10.5703 25.363 10.2057C25.3325 10.0458 25.1386 9.50573 25.4002 9.48369C25.6478 9.46286 25.6995 9.99136 25.754 10.1584C25.8602 10.4842 25.9736 10.8075 26.101 11.1253C26.2437 11.4815 26.4039 11.8309 26.5899 12.1667V12.1671Z" fill="#450832"/>
<path d="M40.7515 40.5153H2.80702C2.80702 40.5153 2.41716 33.749 4.73671 31.3028C5.04403 30.9787 5.7328 30.6641 6.64034 30.3636C6.91361 30.2727 7.2061 30.1837 7.51423 30.096C10.0001 29.3876 13.4836 28.7709 15.6232 28.3186L16.9326 28.2805L17.8041 28.2548L27.7262 27.9648L28.1529 27.9523C31.0506 28.69 36.697 29.8776 38.4644 31.0179C38.6119 31.1137 38.7333 31.2091 38.8231 31.3036C41.1426 33.7498 40.7523 40.5161 40.7523 40.5161L40.7515 40.5153Z" fill="#E86F3A" stroke="black" stroke-width="0.356161" stroke-linecap="round" stroke-linejoin="round"/>
<path d="M26.9673 19.3718C26.9397 19.7072 26.8796 19.9396 26.7826 20.0398C26.1756 20.664 25.3165 18.5869 24.8938 17.4109C24.8521 17.2935 24.814 17.1853 24.7816 17.0899C24.6914 16.8267 24.6393 16.658 24.6393 16.658L24.2439 15.1046L23.7478 13.1585L23.7422 13.1356L23.6745 12.87C23.6008 10.9876 23.3676 9.06349 22.9485 7.97083C22.9465 7.96402 22.9441 7.95801 22.9413 7.9512C22.9336 7.93237 22.9264 7.91394 22.9188 7.89551C22.8968 7.84061 22.8739 7.78812 22.8507 7.73804C22.932 7.56174 23.1428 7.2432 23.586 7.34177C23.6889 7.3646 23.8039 7.40988 23.9329 7.48441C24.3144 7.70438 24.7003 8.35829 25.0629 9.26023C25.0865 9.31913 25.1101 9.37883 25.1334 9.43933C25.4956 10.3793 25.8326 11.5589 26.1175 12.787C26.3891 13.9586 26.6127 15.1747 26.765 16.2713C26.8675 17.0066 26.9369 17.6882 26.9677 18.2655C26.9905 18.6999 26.9913 19.0757 26.9669 19.3714L26.9673 19.3718Z" fill="#6D1249" stroke="black" stroke-width="0.356161" stroke-linecap="round" stroke-linejoin="round"/>
<path d="M25.0623 9.26164C25.0367 9.37182 25.0066 9.48081 24.9721 9.58859C24.8127 9.62906 24.6408 9.56054 24.5182 9.45036C24.3956 9.34057 24.3126 9.19472 24.2313 9.05168C24.0666 8.76078 23.9023 8.46949 23.7376 8.179C23.6611 8.04316 23.583 7.90493 23.5465 7.75267C23.5141 7.61644 23.5189 7.46498 23.585 7.34277C23.688 7.36561 23.803 7.41089 23.932 7.48542C24.3134 7.70539 24.6993 8.3593 25.0619 9.26124L25.0623 9.26164Z" fill="#961E6C"/>
<path d="M26.9678 19.3724C26.9401 19.7077 26.88 19.9401 26.783 20.0403C26.176 20.6646 25.317 18.5874 24.8942 17.4114C24.8526 17.294 24.8145 17.1859 24.782 17.0905C24.6919 16.8272 24.6398 16.6586 24.6398 16.6586L24.2443 15.1051L23.7483 13.159L23.675 12.8705C23.5956 10.8463 23.332 8.77355 22.8516 7.73899C22.9513 7.52183 23.2486 7.08869 23.9338 7.48536C24.3401 7.72016 24.7512 8.4462 25.1342 9.44029C25.4965 10.3803 25.8334 11.5599 26.1183 12.788C26.39 13.9596 26.6136 15.1756 26.7658 16.2723C26.8684 17.0076 26.9377 17.6891 26.9686 18.2665C26.9914 18.7008 26.9922 19.0767 26.9678 19.3724Z" stroke="black" stroke-width="0.356161" stroke-linecap="round" stroke-linejoin="round"/>
<path d="M24.055 12.9697C24.0045 13.0851 23.8883 13.2085 23.7737 13.1568C23.7617 13.1516 23.7509 13.1448 23.7412 13.1364L23.6735 12.8708C23.5998 10.9884 23.3666 9.06429 22.9475 7.97163L22.8085 7.98405L22.7604 7.98806C22.8036 7.94198 22.8581 7.91193 22.9178 7.8963C23.0344 7.86665 23.1695 7.89189 23.274 7.9568C23.4315 8.05497 23.5321 8.22246 23.6146 8.38914C24.1555 9.47819 24.178 10.7423 24.1892 11.9584C24.1924 12.3014 24.1932 12.656 24.0546 12.9693L24.055 12.9697Z" fill="#450832"/>
<path d="M26.7654 16.2725C26.2461 16.6872 25.5009 16.9573 24.7812 17.0907C24.8141 17.186 24.8518 17.2942 24.8934 17.4116C24.9295 17.9025 25.004 18.8849 25.1066 20.0718C25.1066 20.0718 25.1066 20.0726 25.107 20.0746C25.3875 23.3321 25.8767 27.0328 26.3503 27.405C26.3503 27.405 24.9475 33.1544 21.1735 33.1544C17.3995 33.1544 17.4155 27.7957 17.4155 27.7957C17.7745 27.5132 17.8442 27.3029 17.8238 26.0655C17.8086 25.1532 17.7441 24.2761 17.7104 23.8686C17.698 23.7176 17.6896 23.631 17.6896 23.631C16.8417 23.8995 15.9438 24.0313 15.1024 23.8654C14.2674 23.7003 13.488 23.2427 12.867 22.3348C12.3213 21.5374 12.1353 20.5602 12.1878 19.5052C12.2515 18.2158 12.6715 16.811 13.226 15.4787C13.8266 14.0339 14.5863 12.6744 15.2218 11.6402C15.2246 11.6358 15.489 11.5184 15.9206 11.3818C16.5625 11.1786 17.5742 10.9338 18.6432 10.9559C18.5647 12.9052 18.6448 15.6839 19.7407 15.6819C19.9631 15.6815 20.1309 15.1758 20.2507 14.4746C20.3457 13.9185 20.4102 13.2389 20.4483 12.5914C20.4122 13.2393 20.3489 13.9197 20.2551 14.4762C20.2551 14.4762 20.667 17.5631 21.4744 17.186C21.609 17.1231 21.7088 16.8988 21.7789 16.5642C22.0302 17.3764 22.4521 18.223 23.1116 18.1381C23.5439 18.082 23.7567 15.7524 23.6862 13.2429C23.7062 13.2145 23.7267 13.1864 23.7471 13.1588C23.8408 13.0338 23.9422 12.9156 24.0512 12.8102C24.5693 12.3106 25.2581 12.1014 26.1171 12.7878C26.2517 12.8952 26.3908 13.025 26.5338 13.1788C26.6881 13.3447 26.8203 13.505 26.9321 13.6601C27.7795 14.8268 27.4935 15.6915 26.7646 16.2721L26.7654 16.2725Z" fill="#94624B" stroke="black" stroke-width="0.356161" stroke-linecap="round" stroke-linejoin="round"/>
<path d="M21.5385 21.7227C21.5417 23.5333 20.4795 25.3063 18.8811 26.157C18.694 26.2564 18.4869 26.3465 18.2773 26.3169C18.1018 26.292 17.9552 26.1891 17.8249 26.0644C17.8097 25.1521 17.7452 24.275 17.7115 23.8675C17.8554 23.7313 18.0129 23.6075 18.1695 23.4857L21.5385 21.7227Z" fill="#663421"/>
<path d="M15.933 11.7892C15.7916 12.2263 15.5552 12.6442 15.3977 13.0793C14.7526 14.8588 14.4513 16.7612 14.5082 18.6532C14.5398 19.7166 14.6853 20.7768 14.9465 21.8082C15.0691 22.2938 15.2182 22.7818 15.207 23.2827C15.2026 23.4778 15.1685 23.6782 15.1024 23.8645C14.2674 23.6994 13.488 23.2418 12.867 22.3339C12.3213 21.5365 12.1353 20.5593 12.1878 19.5043C12.2515 18.2149 12.6715 16.8101 13.226 15.4778C13.8266 14.033 14.5863 12.6735 15.2218 11.6393C15.2246 11.6349 15.489 11.5175 15.9206 11.3809C15.9767 11.4902 15.9839 11.6305 15.933 11.7892Z" fill="#AD8679"/>
<path d="M18.194 12.1885C18.1488 13.2375 18.1043 14.2977 18.299 15.3295C18.3611 15.6584 18.4749 16.0195 18.7702 16.1765C18.991 16.2943 19.2611 16.2667 19.4983 16.3468C19.9118 16.4867 20.1442 16.9142 20.3341 17.3073C20.524 17.7003 20.7472 18.1298 21.1559 18.2829C21.2973 18.3358 21.45 18.3502 21.5966 18.3859C21.9424 18.47 22.2565 18.678 22.4693 18.9633C22.5534 19.0759 22.6224 19.2009 22.7229 19.2994C22.8235 19.398 22.967 19.4673 23.1036 19.4337C23.237 19.4008 23.3316 19.2754 23.3676 19.1432C23.4037 19.0109 23.3909 18.8703 23.3764 18.7337C23.1965 17.0344 22.7846 15.3692 22.3471 13.7171C22.0911 12.7503 21.7982 11.7378 21.0838 11.0382C20.6538 10.6171 20.0608 10.3334 19.461 10.3811C19.1008 10.4099 18.4657 10.5942 18.2734 10.9376C18.2033 11.0622 18.2317 11.2197 18.2293 11.3563C18.2245 11.6336 18.2061 11.9113 18.194 12.1885Z" fill="#7C412E"/>
<path d="M16.9253 31.9361C16.8287 32.6874 16.6848 33.4635 16.2425 34.0785C15.7997 34.6936 14.9771 35.0975 14.2667 34.8342C13.2366 34.4532 12.9733 32.9751 11.9556 32.5624C10.6995 32.0527 9.27665 33.5132 8.01371 33.0219C7.45395 32.8044 7.09615 32.2482 6.893 31.6837C6.74034 31.2601 6.6562 30.813 6.63977 30.3634C6.91304 30.2725 7.20553 30.1835 7.51366 30.0958C9.99948 29.3874 13.483 28.7707 15.6226 28.3183L16.9321 28.2803C17.1456 29.4839 17.0811 30.7228 16.9249 31.9361H16.9253Z" fill="#49A2A6" stroke="black" stroke-width="0.356161" stroke-linecap="round" stroke-linejoin="round"/>
<path d="M38.3722 31.0162C38.0513 32.0512 37.3953 32.978 36.4774 33.5525C35.6604 34.0638 34.5044 34.2553 33.7848 33.6143C33.2238 33.1146 33.1141 32.2932 32.7687 31.6261C32.1913 30.511 30.8494 29.8483 29.6133 30.0678C29.225 30.1367 28.8512 30.2826 28.4593 30.3227C28.0667 30.3627 27.6275 30.2718 27.3875 29.9588C27.0934 29.575 27.2052 29.0244 27.3759 28.5721C27.4484 28.3794 27.5354 28.1742 27.6347 27.963L28.0619 27.9506C30.9592 28.6883 36.606 29.8759 38.3726 31.0162H38.3722Z" fill="#49A2A6" stroke="black" stroke-width="0.356161" stroke-linecap="round" stroke-linejoin="round"/>
<path d="M36.1452 40.5146H24.0475C23.8932 39.934 23.8888 39.3138 24.0579 38.7364C24.4145 37.5191 25.524 36.5583 26.7797 36.38C28.0851 36.1945 29.3757 36.7895 30.694 36.8276C31.4829 36.8504 32.2734 36.6725 33.0576 36.7586C34.268 36.8913 35.3847 37.7002 35.8768 38.8133C36.1116 39.3446 36.1985 39.936 36.1448 40.5142L36.1452 40.5146Z" fill="#49A2A6" stroke="black" stroke-width="0.356161" stroke-linecap="round" stroke-linejoin="round"/>
<path d="M16.1151 40.5147H4.69885C4.93405 39.0683 6.73351 37.9263 8.01128 37.6519C9.70576 37.288 11.4712 37.7344 13.0891 38.3575C13.8143 38.6367 14.5336 38.9573 15.147 39.4345C15.5297 39.7326 15.8702 40.0976 16.1151 40.5147Z" fill="#49A2A6" stroke="black" stroke-width="0.356161" stroke-linecap="round" stroke-linejoin="round"/>
<path d="M24.6807 15.6184C24.9416 15.5034 25.2269 15.4445 25.5117 15.4465C25.6572 15.4477 25.8082 15.4637 25.9441 15.4116C26.0607 15.3668 26.1532 15.2766 26.2362 15.1833C26.3155 15.0939 26.3908 14.9973 26.4277 14.8839C26.4646 14.7706 26.4565 14.6363 26.3812 14.5438C26.3167 14.4648 26.2125 14.4268 26.1112 14.4208C26.0098 14.4147 25.9084 14.4364 25.809 14.458C25.456 14.535 25.101 14.6123 24.7661 14.7477C24.4587 14.8715 23.9799 15.0939 23.8902 15.4525C23.8533 15.6004 23.9282 15.7158 24.0721 15.761C24.2853 15.8279 24.4928 15.7013 24.6807 15.6184Z" fill="#663421"/>
<path d="M26.9323 13.6597C26.8229 13.8508 26.6418 14.0103 26.4303 13.9838C26.2852 13.9654 26.165 13.862 26.0753 13.7462C25.9863 13.6304 25.9186 13.4986 25.8232 13.3876C25.6129 13.1428 25.2683 13.021 24.9506 13.0799C24.7322 13.1204 24.5062 13.2382 24.3011 13.1536C24.1628 13.0967 24.0783 12.9593 24.051 12.8095C24.5691 12.3098 25.2579 12.1006 26.1169 12.787C26.2516 12.8944 26.3906 13.0242 26.5336 13.1781C26.6879 13.344 26.8201 13.5042 26.9319 13.6593L26.9323 13.6597Z" fill="#AD8679"/>
<path d="M18.765 9.19421C18.7401 9.44384 18.6776 10.1238 18.644 10.9548C16.8561 10.9175 15.2294 11.6272 15.2222 11.6388C15.2967 11.5174 15.3696 11.4004 15.4401 11.2886C15.4409 11.2878 15.4413 11.287 15.4417 11.2862C16.0211 10.3674 16.4559 9.7756 16.4939 9.72472C16.4951 9.72311 16.4959 9.72191 16.4959 9.72151H16.4963V9.72071C16.4963 9.72071 17.0216 9.45746 17.8166 9.3024C18.1019 9.2467 18.422 9.20503 18.7646 9.19461L18.765 9.19421Z" fill="#4C70F5" stroke="black" stroke-width="0.356161" stroke-linecap="round" stroke-linejoin="round"/>
<path d="M15.4407 11.2889C15.3702 11.4007 15.2973 11.5177 15.2228 11.6391C14.7544 12.4016 14.2186 13.34 13.729 14.3593C13.2502 13.4722 12.3298 13.9574 12.3298 13.9574C12.4621 13.6305 12.5702 13.4081 12.5702 13.4081C12.9821 13.8108 13.854 12.7614 14.409 11.9853C14.419 12.0049 14.4306 12.0221 14.4434 12.0378C14.6133 12.2421 15.028 11.823 15.4403 11.2881L15.4407 11.2889Z" fill="#6D1249" stroke="black" stroke-width="0.356161" stroke-linecap="round" stroke-linejoin="round"/>
<path d="M13.2272 15.4775C12.6731 16.8098 12.2532 18.2146 12.189 19.5036C11.6465 20.3186 11.0988 20.9152 10.8351 20.5261C10.2149 19.6122 11.8537 15.8245 11.8537 15.8245C11.8533 15.9688 11.8697 16.101 11.9086 16.2148C12.0644 16.6736 12.6863 16.103 13.2272 15.4779V15.4775Z" fill="#6D1249" stroke="black" stroke-width="0.356161" stroke-linecap="round" stroke-linejoin="round"/>
<path d="M17.6903 23.6299C19.7206 22.9868 21.4643 21.5584 21.4643 21.5584" stroke="black" stroke-width="0.356161" stroke-linecap="round" stroke-linejoin="round"/>
<path d="M24.7823 17.0897C24.4854 17.1454 24.1933 17.1771 23.9225 17.1863" stroke="black" stroke-width="0.356161" stroke-linecap="round" stroke-linejoin="round"/>
<path d="M22.8816 14.9722C22.8816 14.9722 23.1504 14.0026 23.687 13.2429" stroke="black" stroke-width="0.356161" stroke-linecap="round" stroke-linejoin="round"/>
<path d="M23.9331 15.4068C23.9331 15.4068 25.2854 13.8393 26.4919 14.7685" stroke="black" stroke-width="0.356161" stroke-linecap="round" stroke-linejoin="round"/>
<path d="M25.3474 15.6815C25.3474 15.6815 25.3414 15.0328 25.1334 14.6377" stroke="black" stroke-width="0.356161" stroke-linecap="round" stroke-linejoin="round"/>
<path d="M28.0613 27.9507C28.0613 27.9507 26.3504 35.0344 21.0253 35.0344C16.0989 35.0344 15.532 28.317 15.532 28.317C16.5377 28.1042 17.2465 27.9279 17.416 27.7945C17.416 27.7945 17.4 33.1532 21.174 33.1532C24.948 33.1532 26.3508 27.4038 26.3508 27.4038C26.5131 27.5308 27.1517 27.7179 28.0617 27.9503L28.0613 27.9507Z" fill="#F5D256" stroke="black" stroke-width="0.356161" stroke-linecap="round" stroke-linejoin="round"/>
<path d="M20.4487 12.5916C20.4106 13.2391 20.3457 13.9187 20.2511 14.4748C20.1313 15.1756 19.9635 15.6817 19.7411 15.6821C18.9533 15.6833 18.6905 14.248 18.6344 12.717C18.6344 12.717 19.3144 11.9658 20.4487 12.592V12.5916Z" fill="#F5D256" stroke="black" stroke-width="0.356161" stroke-linecap="round" stroke-linejoin="round"/>
<path d="M20.4903 11.3203C20.4899 11.6292 20.4802 11.9878 20.4618 12.364C20.4606 12.3889 20.4594 12.4141 20.4582 12.4394C20.4582 12.4414 20.4578 12.4434 20.4578 12.4458C20.4578 12.4514 20.4574 12.457 20.457 12.4622C20.455 12.5051 20.4526 12.548 20.4498 12.5912C19.3151 11.9654 18.6355 12.7162 18.6355 12.7162C18.6135 12.1172 18.6231 11.5034 18.6451 10.9552C18.6788 10.1242 18.7413 9.44428 18.7661 9.19466C18.4231 9.20507 18.1034 9.24674 17.8181 9.30244C17.8181 9.30244 17.8926 8.82122 18.2264 8.49106C18.2701 8.44739 18.3182 8.40692 18.3711 8.37045C18.3815 8.36244 18.3923 8.35563 18.4031 8.34882C18.4039 8.34842 18.4043 8.34802 18.4051 8.34762C18.4183 8.3388 18.4316 8.33119 18.4456 8.32358C18.4548 8.31877 18.464 8.31356 18.4728 8.30875C18.4816 8.30434 18.4905 8.29953 18.4997 8.29513C18.6599 8.21539 18.8575 8.17252 19.0983 8.19095C19.7839 8.24504 20.1156 8.73507 20.2887 9.37456H20.2891C20.3925 9.75561 20.4398 10.1895 20.4714 10.6155C20.4846 10.7918 20.4915 11.035 20.4903 11.3203Z" fill="#6D1249" stroke="black" stroke-width="0.356161" stroke-linecap="round" stroke-linejoin="round"/>
<path d="M18.7758 9.09082C18.7758 9.09082 18.7722 9.12688 18.7654 9.19339" stroke="black" stroke-width="0.356161" stroke-linecap="round" stroke-linejoin="round"/>
<path d="M21.7793 16.5642C21.7088 16.8988 21.6094 17.1232 21.4748 17.1861C20.6678 17.5627 20.2555 14.4763 20.2555 14.4763C20.3493 13.9197 20.4126 13.2393 20.4487 12.5914C20.4511 12.5482 20.4535 12.5053 20.4559 12.4624C20.4563 12.4572 20.4567 12.4516 20.4567 12.446C20.4567 12.444 20.4571 12.442 20.4571 12.4396C20.4583 12.4143 20.4595 12.3891 20.4607 12.3643C20.4779 11.9888 20.4867 11.6306 20.4867 11.3217C20.4871 11.1634 20.4851 11.018 20.4803 10.8894C20.4771 10.7868 20.4723 10.6954 20.4663 10.6169C20.4334 10.191 20.3853 9.75703 20.2816 9.37638H20.2812C20.1061 8.7377 19.7739 8.24766 19.0875 8.19517C18.918 8.18195 18.7702 8.19998 18.6416 8.23965C18.5911 8.25487 18.5434 8.27371 18.4985 8.29534C18.4893 8.29975 18.4801 8.30456 18.4717 8.30897C18.4625 8.31377 18.4533 8.31898 18.4444 8.32379C18.4304 8.3314 18.4172 8.33902 18.404 8.34783C18.4032 8.34823 18.4028 8.34863 18.402 8.34903C18.3912 8.35585 18.3803 8.36266 18.3699 8.37067C18.317 8.40633 18.2685 8.4464 18.2245 8.48927C18.2217 8.49208 18.2193 8.49448 18.2165 8.49729C18.2165 8.49488 18.2153 8.48326 18.2141 8.46443C18.2088 8.36146 18.204 8.03771 18.3327 7.70875C18.4573 7.39061 18.7057 7.06966 19.1969 6.93864C19.3408 6.90017 19.5058 6.87813 19.6946 6.87733C19.9943 6.87613 20.2543 6.95747 20.4779 7.09651C21.0152 7.43027 21.347 8.09861 21.5289 8.76735V8.76815C21.6042 9.04382 21.6535 9.31989 21.6819 9.57231C21.7861 10.5047 22.1327 14.901 21.7797 16.5638L21.7793 16.5642Z" fill="#6D1249" stroke="black" stroke-width="0.356161" stroke-linecap="round" stroke-linejoin="round"/>
<path d="M15.441 11.287C15.9499 10.6263 16.4552 9.78889 16.4932 9.72559" stroke="black" stroke-width="0.356161" stroke-linecap="round" stroke-linejoin="round"/>
<path d="M18.2145 8.46423C18.2197 8.47665 18.2237 8.48507 18.2249 8.48908" stroke="black" stroke-width="0.356161" stroke-linecap="round" stroke-linejoin="round"/>
<path d="M18.6444 10.9548C18.678 10.1238 18.7406 9.44384 18.7654 9.19421C18.4224 9.20463 18.1027 9.2463 17.8174 9.302" stroke="black" stroke-width="0.356161" stroke-linecap="round" stroke-linejoin="round"/>
<path d="M23.1116 18.1382C22.4521 18.2232 22.0302 17.3761 21.7789 16.5643C21.9268 15.8671 21.9516 14.6895 21.9232 13.4879C21.9232 13.4879 22.6204 12.3936 23.6826 13.1141C23.6838 13.1573 23.685 13.2002 23.6862 13.2435C23.7567 15.7526 23.5439 18.0825 23.1116 18.1386V18.1382Z" fill="#F5D256" stroke="black" stroke-width="0.356161" stroke-linecap="round" stroke-linejoin="round"/>
<path d="M23.6831 13.1138C23.2392 12.8125 22.8585 12.8285 22.5668 12.9495C22.1597 13.117 21.9237 13.4876 21.9237 13.4876C21.8845 11.8236 21.7422 10.1135 21.6817 9.57216C21.6108 8.93668 21.404 8.15175 20.9973 7.5936C20.9949 7.58959 20.9921 7.58558 20.9889 7.58198C20.9665 7.55112 20.9433 7.52187 20.9196 7.49303C20.791 7.33516 20.6443 7.19933 20.4777 7.09635C20.4777 7.09635 20.8675 6.63797 21.4437 6.64799C21.4906 6.64839 21.5391 6.652 21.5888 6.66001C21.8897 6.70529 22.2326 6.88479 22.5925 7.31192C22.685 7.4217 22.7712 7.56595 22.8513 7.73904C22.9058 7.85604 22.9571 7.98586 23.0056 8.1273C23.389 9.2408 23.6046 11.0747 23.6747 12.8706C23.6779 12.9519 23.6811 13.0332 23.6835 13.1138H23.6831Z" fill="#6D1249" stroke="black" stroke-width="0.356161" stroke-linecap="round" stroke-linejoin="round"/>
<path d="M18.2251 8.49029C17.8913 8.82085 17.8168 9.30207 17.8168 9.30207C17.0218 9.45713 16.4965 9.72038 16.4965 9.72038C16.4965 9.72038 16.4965 9.72078 16.4961 9.72118C16.4961 9.72158 16.4953 9.72278 16.4941 9.72438C16.4681 9.75964 16.2545 10.0501 15.9352 10.5265C15.5381 9.52845 14.865 9.90229 14.8453 9.91351C15.028 9.5004 15.2488 9.08289 15.4852 8.71627C15.8559 8.14129 16.2658 7.69012 16.6284 7.57313C17.0883 7.42407 17.4413 7.55389 17.6962 7.75944C18.0051 8.00746 18.1714 8.36407 18.2135 8.46424C18.2147 8.48307 18.2159 8.49469 18.2159 8.4971C18.2183 8.49469 18.2207 8.49229 18.2239 8.48948C18.2243 8.48989 18.2247 8.49029 18.2247 8.49069L18.2251 8.49029Z" fill="#6D1249" stroke="black" stroke-width="0.356161" stroke-linecap="round" stroke-linejoin="round"/>
<path d="M18.3334 7.70875C18.2047 8.03771 18.2095 8.36146 18.2148 8.46444C18.1378 8.28173 17.6478 7.24316 16.6297 7.57372C15.5434 7.92552 14.0349 11.2644 14.4099 11.986C13.8549 12.7621 12.9831 13.8111 12.5712 13.4088C12.1436 12.9921 12.8789 10.5412 13.9924 8.7333C14.5229 7.87183 15.1391 7.15662 15.7566 6.87734C16.3628 6.60327 16.8424 6.58364 17.2155 6.68622C18.01 6.90419 18.3205 7.6747 18.3338 7.70835L18.3334 7.70875Z" fill="#6D1249" stroke="black" stroke-width="0.356161" stroke-linecap="round" stroke-linejoin="round"/>
<path d="M21.588 6.65936C20.9329 6.56 20.4769 7.09571 20.4769 7.09571C20.2529 6.95627 19.9933 6.87533 19.6936 6.87653C18.8614 6.88014 18.4931 7.29725 18.3317 7.70755C18.3317 7.6823 18.3365 6.22903 19.4472 5.9746C20.8059 5.66407 21.588 6.65896 21.588 6.65896V6.65936Z" fill="#6D1249" stroke="black" stroke-width="0.356161" stroke-linecap="round" stroke-linejoin="round"/>
<path d="M18.3317 7.70898L18.3325 7.71139" stroke="black" stroke-width="0.356161" stroke-linecap="round" stroke-linejoin="round"/>
<path d="M27.2181 22.6516C27.1893 23.4726 27.0398 24.127 26.6395 24.1338C25.5737 24.151 25.1214 20.1979 25.1077 20.0741C25.1073 20.0721 25.1073 20.0713 25.1073 20.0713C25.0048 18.8844 24.9302 17.902 24.8942 17.4111C25.3165 18.5871 26.1759 20.6643 26.783 20.04C26.8799 19.9402 26.94 19.7074 26.9677 19.3721C26.9677 19.3721 27.267 21.2541 27.2181 22.6516Z" fill="#6D1249" stroke="black" stroke-width="0.356161" stroke-linecap="round" stroke-linejoin="round"/>
<path d="M28.6767 25.0219C27.6341 24.9826 27.2182 22.6511 27.2182 22.6511C27.2671 21.2535 26.9678 19.3715 26.9678 19.3715C26.9922 19.0754 26.9914 18.7 26.9686 18.2656C27.4322 19.2176 28.1514 20.507 28.7352 20.7246C28.7476 20.7795 29.7124 25.0604 28.6763 25.0219H28.6767Z" fill="#6D1249" stroke="black" stroke-width="0.356161" stroke-linecap="round" stroke-linejoin="round"/>
<path d="M15.7984 15.5175C15.7984 15.5175 14.5824 17.3926 15.0752 17.7004C15.5676 18.0081 16.1066 17.5004 16.1066 17.5004" stroke="black" stroke-width="0.356161" stroke-linecap="round" stroke-linejoin="round"/>
<path d="M16.1988 19.348C16.1988 19.348 17.8684 19.9174 18.7651 18.6709C18.7651 18.6709 19.2716 20.5333 17.9073 20.7725C15.9371 21.1179 16.1988 19.348 16.1988 19.348Z" fill="white" stroke="black" stroke-width="0.356161" stroke-linecap="round" stroke-linejoin="round"/>
<path d="M16.1759 31.0421C16.5213 30.8093 16.8663 30.5769 17.2117 30.3441" stroke="black" stroke-width="0.356161" stroke-linecap="round" stroke-linejoin="round"/>
<path d="M17.937 33.8445C18.1366 33.6389 18.3361 33.4334 18.5352 33.2282" stroke="black" stroke-width="0.356161" stroke-linecap="round" stroke-linejoin="round"/>
<path d="M21.302 34.8173L21.4643 33.832" stroke="black" stroke-width="0.356161" stroke-linecap="round" stroke-linejoin="round"/>
<path d="M24.5215 33.6798C24.3657 33.4678 24.2102 33.2563 24.0543 33.0443" stroke="black" stroke-width="0.356161" stroke-linecap="round" stroke-linejoin="round"/>
<path d="M26.4879 31.2601C26.2322 31.1299 25.9766 30.9996 25.7209 30.869" stroke="black" stroke-width="0.356161" stroke-linecap="round" stroke-linejoin="round"/>
<path d="M27.7359 28.5962C27.3865 28.5658 27.0371 28.5353 26.6877 28.5049" stroke="black" stroke-width="0.356161" stroke-linecap="round" stroke-linejoin="round"/>
<path d="M20.3483 15.0338C20.3483 15.0338 20.8692 13.9464 21.931 14.9397" stroke="black" stroke-width="0.356161" stroke-linecap="round" stroke-linejoin="round"/>
<path d="M20.4736 15.6299C20.682 15.3755 21.1528 15.0257 21.8916 15.6864" stroke="#F5D256" stroke-width="0.356161" stroke-linecap="round" stroke-linejoin="round"/>
<path d="M23.7477 13.1595C23.7261 13.1435 23.7045 13.1283 23.6832 13.1143" stroke="black" stroke-width="0.356161" stroke-linecap="round" stroke-linejoin="round"/>
<path d="M13.7286 14.3588C13.5535 14.7226 13.3844 15.0972 13.2266 15.4771C12.6856 16.1022 12.0638 16.6731 11.9079 16.2139C11.8695 16.1006 11.8526 15.9683 11.853 15.8237C11.8534 15.2451 12.1211 14.471 12.3294 13.9565C12.3294 13.9565 13.2498 13.4709 13.7286 14.3584V14.3588Z" fill="#F5D256" stroke="black" stroke-width="0.356161" stroke-linecap="round" stroke-linejoin="round"/>
<path d="M15.936 10.5271C15.936 10.5271 15.936 10.5275 15.9356 10.5275C15.7905 10.7442 15.6238 10.9995 15.4427 11.2864C15.4423 11.2872 15.4419 11.288 15.4411 11.2888C15.0288 11.8237 14.6141 12.2428 14.4442 12.0384C14.4314 12.0228 14.4198 12.0052 14.4098 11.9859C14.2399 11.659 14.457 10.7947 14.8457 9.91402H14.8461C14.8657 9.9028 15.5389 9.52897 15.936 10.5271Z" fill="#F5D256" stroke="black" stroke-width="0.356161" stroke-linecap="round" stroke-linejoin="round"/>
<path d="M15.935 10.5264L15.9342 10.5272C15.9342 10.5272 15.9345 10.5269 15.935 10.5264Z" fill="#F5D256" stroke="black" stroke-width="0.356161" stroke-linecap="round" stroke-linejoin="round"/>
<path d="M12.7343 11.5086C12.7343 11.5086 13.6334 10.9428 14.2448 12.2094" stroke="black" stroke-width="0.356161" stroke-linecap="round" stroke-linejoin="round"/>
<path d="M11.0416 18.0637C11.0416 18.0637 11.9728 17.5741 12.3002 18.5189" stroke="#F5D256" stroke-width="0.356161" stroke-linecap="round" stroke-linejoin="round"/>
<path d="M25.4313 21.9592C25.4305 21.956 26.0407 21.0064 27.2175 21.8061L25.4313 21.9592Z" fill="#6D1249"/>
<path d="M25.4313 21.9592C25.4305 21.956 26.0407 21.0064 27.2175 21.8061" stroke="black" stroke-width="0.356161" stroke-linecap="round" stroke-linejoin="round"/>
<path d="M25.358 21.1983C25.3572 21.1951 25.9675 20.2455 27.1443 21.0453L25.358 21.1983Z" fill="#6D1249"/>
<path d="M25.358 21.1983C25.3572 21.1951 25.9675 20.2455 27.1443 21.0453" stroke="black" stroke-width="0.356161" stroke-linecap="round" stroke-linejoin="round"/>
<path d="M21.045 7.43066L20.9889 7.58212C20.9664 7.55127 20.9432 7.52202 20.9196 7.49317C20.9584 7.46793 21.0005 7.44669 21.0446 7.43106L21.045 7.43066Z" fill="#450832"/>
<path d="M22.5671 12.9486C22.1601 13.1161 21.9241 13.4868 21.9241 13.4868C21.8848 11.8227 21.7425 10.1126 21.682 9.57131C21.6111 8.93583 21.4044 8.15089 20.9977 7.59274C21.1099 7.48175 21.3086 7.48696 21.4448 7.57231C21.5903 7.66366 21.68 7.82113 21.7546 7.97579C22.2194 8.93703 22.34 10.0233 22.4538 11.0855C22.5203 11.7045 22.5864 12.3284 22.5667 12.9486H22.5671Z" fill="#450832"/>
<path d="M26.765 16.2725C26.2457 16.6872 25.5005 16.9573 24.7808 17.0907C24.8137 17.1861 24.8514 17.2943 24.893 17.4117C24.9291 17.9025 25.0036 18.885 25.1062 20.0718C25.1062 20.0718 25.1062 20.0726 25.1066 20.0746C25.3871 23.3321 25.8763 27.0328 26.3499 27.4051C26.3499 27.4051 24.9471 33.1544 21.1731 33.1544C17.3991 33.1544 17.4151 27.7957 17.4151 27.7957C18.1371 27.2284 17.6892 23.6306 17.6892 23.6306C16.0007 24.1659 14.1143 24.1575 12.867 22.3344C12.3213 21.5371 12.1353 20.5598 12.1878 19.5048C12.2515 18.2154 12.6715 16.8106 13.226 15.4784C13.8266 14.0335 14.5863 12.674 15.2218 11.6398C15.229 11.6282 16.8554 10.9186 18.6436 10.9559C18.5651 12.9052 18.6452 15.6839 19.7411 15.6819C19.9635 15.6815 20.1313 15.1759 20.2511 14.4747C20.3461 13.9185 20.4106 13.239 20.4487 12.5915C20.4126 13.2394 20.3493 13.9197 20.2555 14.4763C20.2555 14.4763 20.6674 17.5631 21.4748 17.1861C21.6094 17.1232 21.7092 16.8988 21.7793 16.5642C22.0306 17.3764 22.4525 18.223 23.112 18.1381C23.5443 18.082 23.7571 15.7524 23.6866 13.243C23.7066 13.2145 23.727 13.1865 23.7475 13.1588C24.2872 12.4384 25.0777 11.9568 26.1179 12.7878C26.2525 12.8952 26.3916 13.025 26.5346 13.1789C27.8485 14.5925 27.5912 15.6142 26.7654 16.2721L26.765 16.2725Z" stroke="black" stroke-width="0.356161" stroke-linecap="round" stroke-linejoin="round"/>
<path d="M21.9205 6.30305L21.8604 6.30465C21.8804 6.30305 21.9 6.30225 21.9205 6.30305Z" fill="#961E6C"/>
<path d="M23.0052 8.12754C22.988 8.25736 22.9639 8.38598 22.9343 8.5134C22.9062 8.6332 22.8505 8.77344 22.7295 8.79388C22.6418 8.8087 22.556 8.7486 22.5095 8.67287C22.4631 8.59714 22.447 8.50739 22.4262 8.42084C22.3312 8.02617 22.1189 7.66075 21.8236 7.38228C21.6833 7.25045 21.5187 7.12865 21.4525 6.94794C21.4173 6.85217 21.4153 6.74559 21.4437 6.64783C21.4906 6.64823 21.5391 6.65183 21.5888 6.65985C21.8897 6.70512 22.2327 6.88463 22.5925 7.31176C22.685 7.42154 22.7712 7.56579 22.8513 7.73888C22.9058 7.85588 22.9571 7.9857 23.0056 8.12714L23.0052 8.12754Z" fill="#961E6C"/>
<path d="M21.7792 16.5637C21.7087 16.8983 21.6093 17.1226 21.4747 17.1855C20.6677 17.5622 20.2554 14.4757 20.2554 14.4757C20.3492 13.9192 20.4125 13.2388 20.4485 12.5909C20.4509 12.5477 20.4533 12.5048 20.4557 12.4619C20.4561 12.4567 20.4565 12.4511 20.4565 12.4455C20.4565 12.4435 20.4569 12.4415 20.4569 12.4391C20.4581 12.4138 20.4593 12.3886 20.4605 12.3637C20.4778 11.9883 20.4866 11.6301 20.4866 11.3212C20.4874 11.0359 20.4798 10.7927 20.4662 10.6164C20.4333 10.1905 20.3852 9.75651 20.2814 9.37587H20.281C20.1059 8.73718 19.7738 8.24715 19.0874 8.19466C18.851 8.17623 18.6571 8.2183 18.4984 8.29443C18.4892 8.29884 18.48 8.30364 18.4716 8.30805C18.4624 8.31286 18.4531 8.31807 18.4443 8.32288C18.4303 8.33049 18.4171 8.3381 18.4039 8.34692C18.4031 8.34732 18.4027 8.34772 18.4018 8.34812C18.391 8.35493 18.3802 8.36174 18.3698 8.36976C18.3169 8.40542 18.2684 8.44549 18.2243 8.48836C18.2215 8.49116 18.2191 8.49357 18.2163 8.49637C18.2163 8.49397 18.2151 8.48235 18.2139 8.46352C18.2087 8.36054 18.2039 8.03679 18.3325 7.70783C18.4936 7.29713 18.8618 6.87962 19.6944 6.87642C19.9942 6.87521 20.2542 6.95655 20.4778 7.09559C21.2371 7.56679 21.5849 8.70753 21.6814 9.5718C21.7856 10.5042 22.1322 14.9005 21.7792 16.5633V16.5637Z" stroke="black" stroke-width="0.356161" stroke-linecap="round" stroke-linejoin="round"/>
<path d="M13.2272 15.4775C12.6731 16.8098 12.2532 18.2146 12.189 19.5036C11.6465 20.3186 11.0988 20.9152 10.8351 20.5261C10.2149 19.6122 11.8537 15.8245 11.8537 15.8245C11.8533 15.9688 11.8697 16.101 11.9086 16.2148C12.0644 16.6736 12.6863 16.103 13.2272 15.4779V15.4775Z" stroke="black" stroke-width="0.356161" stroke-linecap="round" stroke-linejoin="round"/>
<path d="M27.2184 22.6509C27.2184 22.6509 28.1255 21.6516 29.0371 22.4029" stroke="#F5D256" stroke-width="0.356161" stroke-linecap="round" stroke-linejoin="round"/>
<path d="M21.5277 8.76735V8.76815C21.5277 8.86311 21.5189 8.95887 21.5017 9.05303C21.4933 9.09711 21.4797 9.14599 21.44 9.16683C21.3923 9.19207 21.3342 9.16282 21.2909 9.13036C21.0189 8.93042 20.8602 8.61709 20.6863 8.3282C20.5116 8.03931 20.29 7.74761 19.9675 7.64864C19.8401 7.60978 19.705 7.60337 19.5744 7.57732C19.4438 7.55128 19.3104 7.49919 19.2294 7.39381C19.1405 7.27681 19.1329 7.11093 19.1826 6.97269C19.1866 6.96107 19.1914 6.94986 19.1962 6.93864C19.34 6.90017 19.5051 6.87813 19.6938 6.87733C19.9935 6.87613 20.2536 6.95747 20.4772 7.09651C21.0145 7.43027 21.3462 8.09861 21.5281 8.76735H21.5277Z" fill="#961E6C"/>
<path d="M17.2139 6.68622C17.2023 6.70024 17.1899 6.71346 17.1771 6.72588C17.0657 6.83246 16.917 6.88936 16.7752 6.95107C15.9578 7.30767 15.2522 7.91751 14.781 8.6744C14.6996 8.80502 14.6103 8.95167 14.4612 8.99013C14.2629 9.04182 14.1046 8.89798 13.9908 8.7333C14.5213 7.87183 15.1376 7.15662 15.755 6.87734C16.3613 6.60327 16.8409 6.58364 17.2139 6.68622Z" fill="#961E6C"/>
<path d="M17.6963 7.75904C17.6222 7.9698 17.3918 8.11284 17.1698 8.18577C16.9118 8.27111 16.6265 8.31118 16.4198 8.48788C16.2467 8.63613 16.1293 8.87935 15.9049 8.92182C15.741 8.95347 15.5815 8.85611 15.485 8.71627C15.8556 8.14129 16.2655 7.69012 16.6281 7.57313C17.0881 7.42407 17.4411 7.55389 17.6959 7.75944L17.6963 7.75904Z" fill="#961E6C"/>
<path d="M28.6767 25.0219C27.6341 24.9826 27.2182 22.6511 27.2182 22.6511C27.2671 21.2535 26.9678 19.3715 26.9678 19.3715C26.9922 19.0754 26.9914 18.7 26.9686 18.2656C27.4322 19.2176 28.1514 20.507 28.7352 20.7246C28.7476 20.7795 29.7124 25.0604 28.6763 25.0219H28.6767Z" stroke="black" stroke-width="0.356161" stroke-linecap="round" stroke-linejoin="round"/>
<path d="M24.6753 16.569C24.8906 16.569 25.0651 16.3944 25.0651 16.1791C25.0651 15.9638 24.8906 15.7892 24.6753 15.7892C24.4599 15.7892 24.2854 15.9638 24.2854 16.1791C24.2854 16.3944 24.4599 16.569 24.6753 16.569Z" fill="#4C70F5" stroke="black" stroke-width="0.356161" stroke-linecap="round" stroke-linejoin="round"/>
<path d="M25.39 18.7006C25.8111 18.5947 26.0379 18.0537 25.8967 17.4923C25.7555 16.9309 25.2996 16.5617 24.8786 16.6676C24.4575 16.7735 24.2307 17.3145 24.3719 17.8759C24.5131 18.4373 24.969 18.8065 25.39 18.7006Z" fill="#4C70F5" stroke="black" stroke-width="0.356161" stroke-linecap="round" stroke-linejoin="round"/>
<path d="M20.902 10.6932C20.8879 10.773 20.8699 10.8539 20.8222 10.9192C20.7746 10.9837 20.6892 11.0274 20.6123 11.003C20.5558 10.9853 20.5165 10.9361 20.4804 10.89C20.4772 10.7874 20.4724 10.696 20.4664 10.6175C20.4336 10.1916 20.3855 9.75765 20.2817 9.377H20.2813C20.1062 8.73832 19.774 8.24828 19.0877 8.19579C18.9182 8.18257 18.7703 8.2006 18.6417 8.24027C18.6553 8.17135 18.6854 8.10524 18.7283 8.04954L18.687 8.05435C18.9366 7.80954 19.3209 7.7274 19.6615 7.80633C20.0016 7.88607 20.2973 8.11285 20.5013 8.39653C20.7052 8.68062 20.8242 9.01839 20.8911 9.36178C20.9761 9.80012 20.9797 10.2537 20.902 10.6928V10.6932Z" fill="#450832"/>
<path d="M17.2618 7.30595C17.009 7.21139 16.7237 7.22662 16.4672 7.31036C16.2104 7.3941 15.9792 7.54195 15.7673 7.70904C15.0833 8.24875 14.576 9.00804 14.3388 9.84627C14.312 9.94083 14.2919 10.053 14.3545 10.1292C14.4222 10.2117 14.558 10.2033 14.6449 10.1408C14.7315 10.0783 14.7812 9.97849 14.8293 9.88313C15.1181 9.30816 15.4595 8.76002 15.8474 8.24675C16 8.04521 16.1619 7.84687 16.3627 7.69301C16.559 7.54315 16.8006 7.43457 17.0514 7.43737C17.1885 7.43858 17.3003 7.48185 17.4241 7.53274C17.4826 7.55678 17.5651 7.60045 17.6236 7.5684C17.5663 7.44499 17.3848 7.35163 17.2618 7.30595Z" fill="#450832"/>
<path d="M18.2251 8.49044C17.8913 8.82101 17.8168 9.30223 17.8168 9.30223C17.0218 9.45729 16.4965 9.72054 16.4965 9.72054C16.4965 9.72054 16.4965 9.72094 16.4961 9.72134C16.4961 9.72174 16.4953 9.72294 16.4941 9.72454C16.4681 9.7598 16.2545 10.0503 15.9352 10.5267C15.5381 9.52861 14.865 9.90245 14.8453 9.91366C15.3145 8.85106 16.0346 7.76561 16.6288 7.57329C17.6469 7.24272 18.1369 8.28129 18.2139 8.464C18.2151 8.48283 18.2163 8.49445 18.2163 8.49686C18.2187 8.49445 18.2211 8.49205 18.2243 8.48924C18.2247 8.48964 18.2251 8.49004 18.2251 8.49044Z" stroke="black" stroke-width="0.356161" stroke-linecap="round" stroke-linejoin="round"/>
<path d="M18.3333 7.70876C18.2047 8.03772 18.2095 8.36147 18.2147 8.46445C18.1378 8.28174 17.6478 7.24317 16.6296 7.57373C15.5434 7.92553 14.0348 11.2644 14.4099 11.986C13.8549 12.7622 12.983 13.8111 12.5711 13.4089C11.9401 12.7938 13.8433 7.74282 15.7565 6.87735C17.6534 6.01869 18.3141 7.65908 18.3337 7.70836L18.3333 7.70876Z" stroke="black" stroke-width="0.356161" stroke-linecap="round" stroke-linejoin="round"/>
<path d="M21.7792 16.5637C21.7087 16.8983 21.6093 17.1226 21.4747 17.1855C20.6677 17.5622 20.2554 14.4757 20.2554 14.4757C20.3492 13.9192 20.4125 13.2388 20.4485 12.5909C20.4509 12.5477 20.4533 12.5048 20.4557 12.4619C20.4561 12.4567 20.4565 12.4511 20.4565 12.4455C20.4565 12.4435 20.4569 12.4415 20.4569 12.4391C20.4581 12.4138 20.4593 12.3886 20.4605 12.3637C20.4778 11.9883 20.4866 11.6301 20.4866 11.3212C20.4874 11.0359 20.4798 10.7927 20.4662 10.6164C20.4333 10.1905 20.3852 9.75651 20.2814 9.37587H20.281C20.1059 8.73718 19.7738 8.24715 19.0874 8.19466C18.851 8.17623 18.6571 8.2183 18.4984 8.29443C18.4892 8.29884 18.48 8.30364 18.4716 8.30805C18.4624 8.31286 18.4531 8.31807 18.4443 8.32288C18.4303 8.33049 18.4171 8.3381 18.4039 8.34692C18.4031 8.34732 18.4027 8.34772 18.4018 8.34812C18.391 8.35493 18.3802 8.36174 18.3698 8.36976C18.3169 8.40542 18.2684 8.44549 18.2243 8.48836C18.2215 8.49116 18.2191 8.49357 18.2163 8.49637C18.2163 8.49397 18.2151 8.48235 18.2139 8.46352C18.2087 8.36054 18.2039 8.03679 18.3325 7.70783C18.4936 7.29713 18.8618 6.87962 19.6944 6.87642C19.9942 6.87521 20.2542 6.95655 20.4778 7.09559C21.2371 7.56679 21.5849 8.70753 21.6814 9.5718C21.7856 10.5042 22.1322 14.9005 21.7792 16.5633V16.5637Z" stroke="black" stroke-width="0.356161" stroke-linecap="round" stroke-linejoin="round"/>
<path d="M23.6827 13.1136C22.6205 12.3932 21.9233 13.4874 21.9233 13.4874C21.8841 11.8234 21.7418 10.1133 21.6813 9.57199C21.5847 8.70772 21.237 7.56738 20.4777 7.09578C20.4777 7.09578 20.9336 6.55927 21.5888 6.65944C21.8897 6.70471 22.2326 6.88422 22.5925 7.31135C22.685 7.42113 22.7712 7.56538 22.8513 7.73847C23.3317 8.77303 23.5954 10.8458 23.6747 12.87C23.6779 12.9513 23.6811 13.0327 23.6835 13.1132L23.6827 13.1136Z" stroke="black" stroke-width="0.356161" stroke-linecap="round" stroke-linejoin="round"/>
</g>
<defs>
<clipPath id="clip0_71_313">
<rect y="0.000305176" width="40" height="40" rx="20" fill="white"/>
</clipPath>
</defs>
</svg>
