<svg width="20" height="20" viewBox="0 0 20 20" fill="none" xmlns="http://www.w3.org/2000/svg">
<path d="M9.40832 7.04999L4.69999 11.7667C4.62188 11.8441 4.55989 11.9363 4.51758 12.0378C4.47527 12.1394 4.45349 12.2483 4.45349 12.3583C4.45349 12.4683 4.47527 12.5773 4.51758 12.6788C4.55989 12.7804 4.62188 12.8725 4.69999 12.95C4.85613 13.1052 5.06733 13.1923 5.28749 13.1923C5.50764 13.1923 5.71885 13.1052 5.87499 12.95L10.0417 8.82499L14.1667 12.95C14.3228 13.1052 14.534 13.1923 14.7542 13.1923C14.9743 13.1923 15.1855 13.1052 15.3417 12.95C15.4204 12.8728 15.483 12.7808 15.526 12.6792C15.5689 12.5777 15.5912 12.4686 15.5917 12.3583C15.5912 12.2481 15.5689 12.139 15.526 12.0374C15.483 11.9359 15.4204 11.8438 15.3417 11.7667L10.6333 7.04999C10.5553 6.96541 10.4606 6.8979 10.3552 6.85173C10.2497 6.80555 10.1359 6.78172 10.0208 6.78172C9.90574 6.78172 9.7919 6.80555 9.68648 6.85173C9.58107 6.8979 9.48636 6.96541 9.40832 7.04999Z" fill="white"/>
</svg>
