<svg width="92" height="79" viewBox="0 0 92 79" fill="none" xmlns="http://www.w3.org/2000/svg">
<rect x="17.5" y="9" width="64" height="64" rx="32" fill="#D7EAE2"/>
<rect x="17.5" y="9" width="64" height="64" rx="32" stroke="#EBF6F1" stroke-width="4.8"/>
<circle cx="49.4999" cy="41" r="25.6" fill="#37A477"/>
<path d="M60.2367 33.3368C60.088 33.1868 59.911 33.0678 59.716 32.9865C59.521 32.9053 59.3119 32.8635 59.1007 32.8635C58.8895 32.8635 58.6804 32.9053 58.4854 32.9865C58.2904 33.0678 58.1134 33.1868 57.9647 33.3368L46.0447 45.2728L41.0367 40.2488C40.8823 40.0996 40.7 39.9823 40.5002 39.9036C40.3004 39.8248 40.0871 39.7862 39.8724 39.7899C39.6577 39.7937 39.4459 39.8396 39.2489 39.9252C39.052 40.0108 38.8739 40.1343 38.7247 40.2888C38.5755 40.4432 38.4582 40.6255 38.3795 40.8253C38.3008 41.025 38.2622 41.2384 38.2659 41.4531C38.2696 41.6677 38.3155 41.8796 38.4011 42.0765C38.4867 42.2735 38.6103 42.4516 38.7647 42.6008L44.9087 48.7448C45.0574 48.8947 45.2344 49.0138 45.4294 49.095C45.6244 49.1762 45.8335 49.218 46.0447 49.218C46.2559 49.218 46.465 49.1762 46.66 49.095C46.855 49.0138 47.032 48.8947 47.1807 48.7448L60.2367 35.6888C60.3991 35.5389 60.5287 35.3571 60.6174 35.1547C60.706 34.9523 60.7518 34.7337 60.7518 34.5128C60.7518 34.2918 60.706 34.0732 60.6174 33.8708C60.5287 33.6684 60.3991 33.4866 60.2367 33.3368Z" fill="white"/>
<path d="M73.9001 60.2L74.6564 62.2438L76.7001 63L74.6564 63.7563L73.9001 65.8L73.1438 63.7563L71.1001 63L73.1438 62.2438L73.9001 60.2Z" fill="#37A477"/>
<path d="M3.49995 33.8L4.25621 35.8437L6.29995 36.6L4.25621 37.3562L3.49995 39.4L2.7437 37.3562L0.699951 36.6L2.7437 35.8437L3.49995 33.8Z" fill="#F59E0B"/>
<path d="M45.1 0.200012L45.8563 2.24376L47.9 3.00001L45.8563 3.75627L45.1 5.80001L44.3438 3.75627L42.3 3.00001L44.3438 2.24376L45.1 0.200012Z" fill="#6F8DE9"/>
<path d="M25.3313 72.0141C26.5335 72.0141 28.2452 71.7191 29.3865 72.1268C31.1998 72.7744 31.5666 75.0023 32.3653 76.5199C33.0256 77.7743 33.3762 78.1236 34.6933 77.8842C35.829 77.6777 37.0171 76.9705 38.1728 76.9705" stroke="#F59E0B" stroke-width="1.2" stroke-linecap="round"/>
<path d="M81.4285 21.0987C81.4285 20.1658 82.6143 19.1896 83.0556 18.3953C83.413 17.7518 84.0294 17.2486 84.3572 16.593" stroke="#F59E0B" stroke-width="1.2" stroke-linecap="round"/>
<path d="M79.6262 23.1262C79.6262 23.6652 79.6551 24.2526 80.3021 24.2526" stroke="#F59E0B" stroke-width="1.2" stroke-linecap="round"/>
<path d="M13.1138 51.6673C12.6462 51.384 11.8574 52.222 11.6158 52.5274C11.2801 52.9521 12.0728 53.7065 12.3959 54.0348C12.7914 54.4368 14.0068 55.7097 14.4761 55.1162C14.8668 54.6221 14.652 54.1745 13.9822 54.4076C13.2727 54.6546 12.5162 55.3193 12.0558 55.9015C11.6307 56.4392 11.8995 56.9709 12.2855 57.5189C12.9371 58.4439 13.3964 58.7388 14.584 58.6308C15.3434 58.5617 15.9558 58.1857 17.7834 58.7946" stroke="#37A477" stroke-width="1.2" stroke-linecap="round"/>
<path d="M60.3923 7.56659C60.9366 6.41128 62.3088 5.52625 62.9057 7.04866C63.1873 7.76668 63.4124 8.45799 63.6731 9.18312C63.7704 9.4538 63.8046 9.71111 63.9114 9.96517C64.0037 10.185 64.1822 10.2678 64.2705 10.4574C64.3802 10.6932 65.4927 11.2042 65.7707 11.2036C66.244 11.2026 66.674 10.914 67.1215 10.8786C68.3688 10.7801 68.3318 12.5836 69.4182 13.0953" stroke="#37A477" stroke-width="1.2" stroke-linecap="round"/>
<path d="M88.1869 48.8094V48.8094C86.2503 48.8094 84.9822 51.6009 85.9551 53.2755C85.9874 53.3311 86.0221 53.3782 86.0592 53.4153C86.1266 53.4827 86.2918 53.54 86.5141 53.5838C88.1632 53.9085 90.7806 51.4001 89.0999 51.4001V51.4001C87.6444 51.4001 84.225 54.0882 85.083 56.0186C85.1142 56.0889 85.1518 56.1533 85.1951 56.2124C86.2945 57.715 88.8988 57.2833 90.6651 56.6945V56.6945" stroke="#6F8DE9" stroke-width="1.2" stroke-linecap="round"/>
<path d="M12.9402 14.7906C12.9402 15.9174 13.4867 18.3306 14.5172 18.8458" stroke="#37A477" stroke-width="1.2" stroke-linecap="round"/>
<path d="M15.8691 22.4504C15.8691 23.642 16.7703 23.5422 16.7703 22.4504" stroke="#F59E0B" stroke-width="1.2" stroke-linecap="round"/>
<path d="M49.1 73L49.8563 75.0437L51.9 75.8L49.8563 76.5563L49.1 78.6L48.3438 76.5563L46.3 75.8L48.3438 75.0437L49.1 73Z" fill="#6F8DE9"/>
</svg>
